<svg xmlns="http://www.w3.org/2000/svg" width="311.118" height="247.977" viewBox="0 0 311.118 247.977">
  <g id="Analyzing_results" data-name="Analyzing results" transform="translate(-234.656 -363.314)" opacity="0.81">
    <g id="Background" transform="translate(234.656 363.314)">
      <path id="路径_643" data-name="路径 643" d="M249.407,489.386c-25.765-24.6-16.353-67.735,17.156-79.825l.569-.2c42.6-14.989,66.633,12.508,98.34,0,26.978-10.643,25.737-31.094,54.213-40.975,5.982-2.076,36.514-12.478,63.669,4.413,3.711,2.308,25.968,16.152,28.367,40.975,2.819,29.163-43.859,38.814-41.605,59.256,2.731,24.768,67.814,23.944,75.016,55.474,3.766,16.484-9.631,35.944-23.954,45.388-28.02,18.473-60.054-1.074-113.469-8.2-56.118-7.482-81.256,25.582-117.882,7.565-4.135-2.034-28.747-11.385-28.367-23.324.47-14.775,38.566-20.6,37.823-32.15-.634-9.852-28.54-8.668-49.17-27.737Q249.756,489.719,249.407,489.386Z" transform="translate(-234.656 -363.314)" fill="#ffeaf6"/>
    </g>
    <g id="Plants" transform="translate(253.292 419.234)">
      <path id="路径_644" data-name="路径 644" d="M455.587,664.765c6.457,8.372,13.182,8.54,17.291,14.593,4.211,6.2-4.425,11.446.055,18.722.94,1.527,1.943,2.455,2.413,4.477.846,3.638-.914,7.032-2.835,9.554a1.711,1.711,0,0,1-.933.59c-.037.011-.074.02-.111.027a2.153,2.153,0,0,1-1.172-.08,13.3,13.3,0,0,1-6.508-4.516c-2.142-3.131-.528-5.383-1.042-9.17-.269-1.98-1.085-4.137-12.086-14.936-9.7-9.518-10.413-9.171-12.147-12.238-3.483-6.166-.38-7.211-3.591-15.143-3.274-8.085-7.351-9.1-8.463-16.276-.377-2.436-1.306-8.421,2.569-10.324.03-.015.062-.03.094-.044s.073-.034.111-.05c3.387-1.477,9.1.446,12.558,3.044,5.28,3.968,3.469,8.139,7.982,19.981C451.9,658.576,452.974,661.376,455.587,664.765Z" transform="translate(-404.495 -629.438)" fill="#fd9ecc"/>
      <path id="路径_645" data-name="路径 645" d="M440.65,631.881a49.9,49.9,0,0,1,6.217,6.6,37.008,37.008,0,0,1,6.275,11.7l.236.775c.066.261.124.522.187.783l.186.785.141.79c.043.264.1.527.133.791l.1.793c.077.529.111,1.06.164,1.591a37.736,37.736,0,0,0,.812,6.333,19.125,19.125,0,0,0,2.8,5.942,23.689,23.689,0,0,0,4.721,5.132,28.759,28.759,0,0,0,3,2.117c1.057.655,2.162,1.261,3.277,1.853s2.244,1.172,3.327,1.8a21.3,21.3,0,0,1,3.052,2.088,12.073,12.073,0,0,1,2.33,2.6,12.486,12.486,0,0,1,1.427,2.982,12.31,12.31,0,0,1,.4,1.565,11.125,11.125,0,0,1,.163,1.592,12.924,12.924,0,0,1-.061,1.6c-.056.53-.137,1.059-.233,1.585-.193,1.053-.437,2.1-.616,3.15a19.145,19.145,0,0,0,.632,9.481A37.938,37.938,0,0,0,483,714.631c.7,1.185.61,1.21-.111.026a38.275,38.275,0,0,1-3.818-8.294,19.347,19.347,0,0,1-.731-9.568c.172-1.062.4-2.112.587-3.156.089-.524.165-1.045.215-1.567a13.136,13.136,0,0,0,.045-1.563,11.424,11.424,0,0,0-.167-1.552,11.974,11.974,0,0,0-.395-1.528,12.289,12.289,0,0,0-1.4-2.905,11.821,11.821,0,0,0-2.269-2.517,21.076,21.076,0,0,0-3-2.036c-1.072-.619-2.2-1.195-3.318-1.787s-2.239-1.2-3.312-1.862a29.127,29.127,0,0,1-3.057-2.146,24.064,24.064,0,0,1-4.781-5.228,19.411,19.411,0,0,1-2.829-6.05,37.964,37.964,0,0,1-.8-6.383,30.411,30.411,0,0,0-1.093-6.259l-.226-.77c-.084-.255-.183-.507-.275-.76l-.277-.76c-.048-.127-.089-.255-.143-.379l-.164-.374-.657-1.5-.742-1.473a41.107,41.107,0,0,0-3.639-5.65,49.1,49.1,0,0,0-6.1-6.662C440.575,631.913,440.613,631.9,440.65,631.881Z" transform="translate(-415.914 -631.367)" fill="#fff"/>
      <path id="路径_646" data-name="路径 646" d="M391.368,840.139c4.86,3.935,10.933,3.971,10.732,6.873a3.432,3.432,0,0,1-1.013,2c-.042.045-.082.089-.124.131a11.343,11.343,0,0,1-3.461,2.307c-8.37,3.638-19.8-3.81-21.847-5.139-7.759-5.054-6.036-7.8-13.6-13.149-7.147-5.06-10.182-3.67-18.465-8.244-10.115-5.584-19.233-15.19-17.36-19.242.023-.052.047-.1.074-.148a2.508,2.508,0,0,1,.28-.4c2.658-3.121,15.119-2.137,23.6,2.008,8.547,4.176,6.655,8.438,15.9,12.987,8.031,3.95,12.362,2.165,17.917,6.141C389.972,830.53,385.436,835.336,391.368,840.139Z" transform="translate(-325.431 -766.758)" fill="#808bd1"/>
      <path id="路径_647" data-name="路径 647" d="M403.69,860.175s-11.858-.1-14.053-.663a28.451,28.451,0,0,1-6.163-2.355,10.978,10.978,0,0,1-2.592-1.789,10.2,10.2,0,0,1-1.829-2.346c-.973-1.685-1.583-3.471-2.582-5.064a13.9,13.9,0,0,0-3.993-4.146,18.494,18.494,0,0,0-2.65-1.54,17.222,17.222,0,0,0-3.046-1.035c-1.075-.271-2.193-.515-3.287-.818a32.149,32.149,0,0,1-3.186-1.07c-.505-.214-1.018-.418-1.5-.654l-.737-.344-.716-.368-.714-.37c-.24-.121-.462-.263-.694-.393l-.687-.4c-.232-.132-.443-.284-.666-.425a25.922,25.922,0,0,1-4.712-3.9c-1.383-1.432-2.613-2.94-3.977-4.342a32.751,32.751,0,0,0-4.5-3.9,35.609,35.609,0,0,0-5.364-3.141,45.44,45.44,0,0,0-6.06-2.341,62.748,62.748,0,0,0-6.52-1.638l-.118-.022c.023-.052.047-.1.074-.149l.111.02a63.462,63.462,0,0,1,6.592,1.559,45.574,45.574,0,0,1,6.141,2.3,36.13,36.13,0,0,1,5.462,3.125,31.214,31.214,0,0,1,4.584,3.912c1.385,1.412,2.624,2.915,4,4.329a25.566,25.566,0,0,0,4.663,3.827c.219.138.427.286.655.416l.681.392c.229.128.448.266.687.386l.706.362.709.361.729.337c.481.232.986.431,1.484.64a32.216,32.216,0,0,0,3.123,1.06c1.073.3,2.182.547,3.272.826a17.583,17.583,0,0,1,3.126,1.077,18.574,18.574,0,0,1,2.711,1.588,14.188,14.188,0,0,1,4.071,4.263,22.446,22.446,0,0,1,1.306,2.535c.391.863.767,1.731,1.235,2.56a9.889,9.889,0,0,0,1.749,2.3,10.6,10.6,0,0,0,2.5,1.763,28.066,28.066,0,0,0,6.056,2.381,34.17,34.17,0,0,0,6.785,1.1q.818.057,1.645.073c.631.014,1.264.011,1.9-.005C401.292,860.409,402.492,860.321,403.69,860.175Z" transform="translate(-323.344 -777.558)" fill="#fff"/>
    </g>
    <g id="Plants-2" data-name="Plants" transform="translate(461.24 387.114)">
      <path id="路径_648" data-name="路径 648" d="M1357.108,564.145s-13.567-16.05-4.619-30.241,7.276-14.409,7.137-23.159,1.212-17.877,8.3-21.1,2.549-9.339,12.752-10.608c0,0-5.024,14.144-2.266,20.95s2.952,19.63-1.285,25.43-10.311,14.109-8.779,23.543S1361.25,563.936,1357.108,564.145Z" transform="translate(-1341.773 -478.517)" fill="#fd9ecc"/>
      <path id="路径_649" data-name="路径 649" d="M1386.79,566.476a37.3,37.3,0,0,1-1.763-11.859,31.5,31.5,0,0,1,.678-5.957l.155-.734c.051-.245.128-.483.192-.725l.2-.723.1-.362c.033-.12.079-.237.118-.356l.486-1.418a13.074,13.074,0,0,1,.586-1.367c.223-.441.476-.875.722-1.314s.492-.879.731-1.322c.481-.885.938-1.783,1.395-2.679q1.371-2.686,2.726-5.382c.9-1.8,1.782-3.608,2.618-5.442a57.388,57.388,0,0,0,2.26-5.616l.234-.722c.078-.241.14-.487.21-.73s.141-.486.2-.733l.173-.74.086-.37.07-.374.139-.748c.042-.25.07-.5.106-.754s.074-.5.09-.756a21.368,21.368,0,0,0-.213-6.071,20.116,20.116,0,0,0-.817-2.934c-.335-.955-.727-1.883-1.043-2.826a14.157,14.157,0,0,1-.4-1.429,10.449,10.449,0,0,1-.2-1.461,10.672,10.672,0,0,1,.016-1.477,12.963,12.963,0,0,1,.222-1.468,20.547,20.547,0,0,1,2.182-5.547c.94-1.771,1.969-3.5,2.993-5.228s2.047-3.461,3.094-5.176,2.12-3.416,3.212-5.1q-1.7,2.489-3.321,5.036c-1.078,1.7-2.13,3.411-3.188,5.122q-.788,1.286-1.559,2.584c-.513.865-1.019,1.736-1.5,2.622s-.941,1.786-1.34,2.717a15.555,15.555,0,0,0-.935,2.9,13.169,13.169,0,0,0-.245,1.51,11.053,11.053,0,0,0-.034,1.535,10.352,10.352,0,0,0,.2,1.524,14.483,14.483,0,0,0,.41,1.474c.32.964.708,1.893,1.035,2.836a19.63,19.63,0,0,1,.79,2.874,20.949,20.949,0,0,1,.185,5.943,26.992,26.992,0,0,1-1.308,5.822,56.852,56.852,0,0,1-2.221,5.577c-.826,1.828-1.7,3.635-2.592,5.437s-1.8,3.595-2.7,5.389c-.452.9-.909,1.791-1.379,2.677q-.351.665-.714,1.324c-.24.441-.49.878-.715,1.337a13.459,13.459,0,0,0-.587,1.409l-.475,1.44c-.038.12-.082.239-.115.361l-.1.366-.192.733c-.061.245-.137.487-.186.734l-.149.743a31.445,31.445,0,0,0-.616,6.016,34.783,34.783,0,0,0,.511,6.018l.132.743c.044.248.1.493.152.74.1.494.22.982.341,1.47C1386.182,564.558,1386.465,565.524,1386.79,566.476Z" transform="translate(-1369.7 -476.575)" fill="#fff"/>
      <path id="路径_650" data-name="路径 650" d="M1313.6,657.949a24.38,24.38,0,0,1,10.852-23.827c13.723-9.421,23.145-14.4,25.056-26.8s5.562-19.846,12.739-23.732,6.678-6.744,12.21-9.7,15.309-4.62,15.309-4.62-15.785,12.47-16.5,24.547-4.2,20.126-11.489,26.427-10.044,22.482-25.359,26.65S1313.6,657.949,1313.6,657.949Z" transform="translate(-1313.267 -549.796)" fill="#aacef2"/>
      <path id="路径_651" data-name="路径 651" d="M1312.971,658.083a34.116,34.116,0,0,1,2.44-7.4,27.919,27.919,0,0,1,4.224-6.519c.44-.477.868-.966,1.332-1.418s.941-.893,1.438-1.309a35.709,35.709,0,0,1,3.144-2.3l6.506-4.32c2.167-1.443,4.333-2.887,6.48-4.362q1.612-1.1,3.2-2.239c1.059-.76,2.11-1.533,3.121-2.361a39.676,39.676,0,0,0,5.448-5.621c.211-.249.4-.518.6-.777l.587-.785.558-.805c.187-.268.375-.535.547-.813.353-.549.711-1.1,1.038-1.661.166-.281.338-.558.5-.843l.477-.855c1.261-2.287,2.338-4.666,3.373-7.057,1.018-2.395,2.063-4.79,2.853-7.282.4-1.242.731-2.509,1.012-3.784s.5-2.558.805-3.818a24.685,24.685,0,0,1,2.983-7.138,30.767,30.767,0,0,1,4.837-6.069,40.983,40.983,0,0,1,6.079-4.857l.809-.544.833-.506.834-.5c.279-.166.553-.343.842-.492l1.714-.931.429-.232.439-.213.877-.427.877-.427c.146-.07.292-.144.439-.212l.448-.2,1.788-.78c.593-.271,1.206-.491,1.81-.731l1.819-.709-1.826.691c-.608.234-1.223.448-1.818.713l-1.8.762-.45.191c-.148.066-.294.139-.442.208l-.882.419-.883.419-.441.209-.432.228-1.727.915c-.291.147-.567.321-.849.485l-.842.5-.84.5-.816.538a40.905,40.905,0,0,0-6.134,4.843,30.976,30.976,0,0,0-4.906,6.086,24.512,24.512,0,0,0-3.042,7.2c-.308,1.271-.53,2.555-.814,3.822s-.609,2.523-1.012,3.756c-.789,2.473-1.835,4.856-2.857,7.249-1.038,2.384-2.115,4.752-3.373,7.024l-.472.851c-.158.283-.329.559-.493.839-.323.562-.678,1.106-1.028,1.652-.17.276-.357.541-.542.808l-.552.8-.582.78c-.2.258-.381.525-.591.772a39.4,39.4,0,0,1-5.393,5.586c-1,.823-2.047,1.6-3.1,2.355s-2.122,1.5-3.194,2.241q-3.216,2.212-6.459,4.386l-6.482,4.357a35.812,35.812,0,0,0-3.147,2.325q-.749.633-1.442,1.327c-.465.459-.895.951-1.331,1.436a28.039,28.039,0,0,0-4.177,6.588A34.146,34.146,0,0,0,1312.971,658.083Z" transform="translate(-1312.971 -547.839)" fill="#fff"/>
      <path id="路径_652" data-name="路径 652" d="M1367.642,808.159c2.413-5.322,8.46-10.7,18.25-11.189s14.726-7.386,17.149-13.245,9.745-13.326,9.745-13.326-.094.027-.285.074l-.123.031a60.122,60.122,0,0,1-7.679,1.21c-5.557.581-8.716,6.78-13.665,7.483a26.771,26.771,0,0,0-13.011,5.486c-4.072,3.074-7.166,4.59-15.765,4.72s-16.969,15.326-16.969,15.326q.057.754.173,1.439a.24.24,0,0,0,.007.041C1347.7,819.325,1365.238,813.463,1367.642,808.159Z" transform="translate(-1338.499 -708.658)" fill="#808bd1"/>
      <path id="路径_653" data-name="路径 653" d="M1346.119,806.489q3.573-.922,7.049-2.173a70.5,70.5,0,0,0,9.307-4.164c1.5-.8,2.964-1.674,4.4-2.575s2.88-1.8,4.37-2.6,3.02-1.534,4.581-2.2a49.028,49.028,0,0,1,4.756-1.765c.811-.241,1.629-.452,2.454-.641s1.662-.37,2.48-.63a18.724,18.724,0,0,0,2.387-.938c.389-.178.768-.374,1.149-.563l1.124-.608a28.782,28.782,0,0,0,4.209-2.9c1.317-1.084,2.545-2.258,3.809-3.391a75.792,75.792,0,0,1,7.992-6.285q3.371-2.323,6.961-4.307c-.037.01-.078.02-.123.031q-3.56,1.9-6.925,4.146a75.465,75.465,0,0,0-8.068,6.233l-1.9,1.7-.952.844c-.322.275-.641.554-.969.82a28.65,28.65,0,0,1-4.175,2.863l-1.118.6c-.379.187-.755.381-1.138.554a18.563,18.563,0,0,1-2.353.919c-.8.251-1.628.428-2.458.616s-1.658.4-2.476.64a49.292,49.292,0,0,0-4.786,1.79c-1.564.668-3.1,1.4-4.6,2.22s-2.941,1.718-4.378,2.619-2.889,1.78-4.376,2.594a70.949,70.949,0,0,1-9.241,4.233q-3.443,1.306-7,2.277A.256.256,0,0,0,1346.119,806.489Z" transform="translate(-1339.148 -708.937)" fill="#fff"/>
    </g>
    <g id="Browser" transform="translate(306.905 373.637)">
      <g id="Browser-2" data-name="Browser" transform="translate(12.187 0)">
        <path id="路径_1644" data-name="路径 1644" d="M9.921,0H148.667a9.921,9.921,0,0,1,9.921,9.921V115a9.921,9.921,0,0,1-9.921,9.921H9.921A9.921,9.921,0,0,1,0,115V9.921A9.921,9.921,0,0,1,9.921,0Z" fill="#404884"/>
      </g>
      <g id="组_377" data-name="组 377" transform="translate(0 8.125)">
        <path id="路径_654" data-name="路径 654" d="M578.487,614.935a10.726,10.726,0,0,0,10.727,10.727H726.346a10.727,10.727,0,0,0,10.728-10.727V513.941H578.487Z" transform="translate(-578.487 -500.737)" fill="#c9e3f4"/>
        <path id="路径_655" data-name="路径 655" d="M726.346,451.105H589.214a10.726,10.726,0,0,0-10.727,10.728v2.476H737.074v-2.476A10.727,10.727,0,0,0,726.346,451.105Z" transform="translate(-578.487 -451.105)" fill="#a7cdf2"/>
      </g>
      <g id="组_378" data-name="组 378" transform="translate(9.006 12.743)">
        <path id="路径_656" data-name="路径 656" d="M623.915,478.44a2.5,2.5,0,0,1-1.815-.785,2.761,2.761,0,0,1,0-3.788,2.492,2.492,0,0,1,3.631,0,2.763,2.763,0,0,1,0,3.788A2.5,2.5,0,0,1,623.915,478.44Z" transform="translate(-621.348 -473.082)" fill="#fff"/>
        <path id="路径_657" data-name="路径 657" d="M657.75,478.44a2.5,2.5,0,0,1-1.815-.785,2.762,2.762,0,0,1,0-3.788,2.492,2.492,0,0,1,3.63,0,2.762,2.762,0,0,1,0,3.788A2.5,2.5,0,0,1,657.75,478.44Z" transform="translate(-648.073 -473.082)" fill="#fff"/>
        <path id="路径_658" data-name="路径 658" d="M691.584,478.44a2.5,2.5,0,0,1-1.815-.785,2.762,2.762,0,0,1,0-3.788,2.492,2.492,0,0,1,3.631,0,2.762,2.762,0,0,1,0,3.788A2.5,2.5,0,0,1,691.584,478.44Z" transform="translate(-674.798 -473.082)" fill="#fff"/>
      </g>
      <g id="组_381" data-name="组 381" transform="translate(9.006 28.032)">
        <rect id="矩形_164" data-name="矩形 164" width="44.959" height="12.767" fill="#a7cdf2"/>
        <rect id="矩形_165" data-name="矩形 165" width="77.291" height="12.767" transform="translate(55.982)" fill="#a7cdf2"/>
        <g id="组_379" data-name="组 379" transform="translate(0.281 53.829)">
          <rect id="矩形_166" data-name="矩形 166" width="44.141" height="2.844" fill="#a7cdf2"/>
          <rect id="矩形_167" data-name="矩形 167" width="132.237" height="2.844" transform="translate(0 9.953)" fill="#a7cdf2"/>
          <rect id="矩形_168" data-name="矩形 168" width="132.237" height="2.844" transform="translate(0 19.907)" fill="#a7cdf2"/>
          <rect id="矩形_169" data-name="矩形 169" width="132.237" height="2.844" transform="translate(0 29.86)" fill="#a7cdf2"/>
        </g>
        <g id="组_380" data-name="组 380" transform="translate(0.281 22.984)">
          <rect id="矩形_170" data-name="矩形 170" width="44.141" height="2.844" fill="#a7cdf2"/>
          <rect id="矩形_171" data-name="矩形 171" width="44.141" height="2.844" transform="translate(0 9.953)" fill="#a7cdf2"/>
          <rect id="矩形_172" data-name="矩形 172" width="44.141" height="2.844" transform="translate(0 19.907)" fill="#a7cdf2"/>
        </g>
      </g>
    </g>
    <g id="Plant" transform="translate(276.288 526.19)">
      <g id="组_384" data-name="组 384" transform="translate(22.44 62.057)">
        <path id="路径_664" data-name="路径 664" d="M539.574,1436.147s8.963-5.353,21.91,0l-10.831,13.072Z" transform="translate(-539.574 -1433.768)" fill="#353b6e"/>
      </g>
      <path id="路径_665" data-name="路径 665" d="M464.249,1250.815c-.922-10.628-7.822-17.886-13.818-25.894a134.2,134.2,0,0,1-13.818-23.031c-5,9.58-4.206,14.482-2.615,17.179,2.323,3.938,6.416,3.3,8.341,7.47,2.8,6.064-3.377,12.81-.747,15.312,2.231,2.123,7.573-1.878,10.083.623,1.925,1.918-.036,5.444,2.117,7.1,1.642,1.26,3.308-.388,5.6.747,3.33,1.648,3.491,6.94,4.233,6.847C464.174,1257.095,464.539,1254.157,464.249,1250.815Z" transform="translate(-432.784 -1188.557)" fill="#ff90c6"/>
      <path id="路径_666" data-name="路径 666" d="M557.26,1208.351a96.028,96.028,0,0,1-4.24-69.913c-1.939,8.631-.393,13.895,1.369,17.1,2.113,3.848,4.347,4.391,5.229,8.126,1.331,5.637-2.982,7.7-2.658,13.943.329,6.324,4.919,7.462,6.135,13.53C563.821,1194.76,563.389,1200.354,557.26,1208.351Z" transform="translate(-524.076 -1138.438)" fill="#808bd1"/>
      <path id="路径_667" data-name="路径 667" d="M594.745,1256.572a85.985,85.985,0,0,1,9.337-55.274c-1.871,6.868-1.111,11.716,0,14.939,1.776,5.15,4.642,6.713,4.108,10.706-.55,4.114-3.883,4.638-4.482,9.71-.419,3.556,1.1,4.348,0,6.847-1.251,2.855-3.9,3.352-4.233,6.225-.172,1.472.458,1.9.125,3.113C599.043,1254.858,596.659,1255.959,594.745,1256.572Z" transform="translate(-559.794 -1188.09)" fill="#aacef2"/>
      <path id="路径_668" data-name="路径 668" d="M539.574,1445.091s8.714,4.482,21.91,0l-2.49,20.665H543.06Z" transform="translate(-517.134 -1380.654)" fill="#404884"/>
    </g>
    <g id="Person" transform="translate(428.209 455.571)">
      <path id="路径_659" data-name="路径 659" d="M1328.181,977.719l-.034.057-.024-.051L1312.139,967.6l-2.018,2.625,11.049,11.1c.867.875,3.841,2.79,5.043,2.522,1.115-.249,3.3-2.675,5.253-4.623C1333.358,977.339,1328.181,977.719,1328.181,977.719Z" transform="translate(-1277.689 -932.882)" fill="#ffd5c0"/>
      <g id="Object" transform="translate(0 0)">
        <rect id="矩形_173" data-name="矩形 173" width="32.36" height="37.613" transform="translate(0 9.771) rotate(-17.574)" fill="#ac7dfd"/>
      </g>
      <g id="组_386" data-name="组 386" transform="translate(25.813 16.416)">
        <path id="路径_669" data-name="路径 669" d="M1399.527,880.738c-4.341,1.61-4.654,10.809-4.828,15.931-.188,5.561-.488,14.4,5.7,21.172,5.888,6.446,17.013,10.335,21.7,6.219,4.72-4.147,1.105-14.847-.307-19.028C1417.239,891.559,1405.533,878.511,1399.527,880.738Z" transform="translate(-1370.249 -880.489)" fill="#ff90c6"/>
        <path id="路径_670" data-name="路径 670" d="M1357.057,1293.752s-2.915,32.43-4.919,35.892,4.008,5.648,5.466,1.457,9.838-27.147,6.74-35.892S1357.057,1293.752,1357.057,1293.752Z" transform="translate(-1336.37 -1204.665)" fill="#ffd5c0"/>
        <path id="路径_671" data-name="路径 671" d="M1468.557,1293.043s3.48,32.374,2.191,36.161,4.879,6.479,5.49,2.085,4.5-30.27-.248-38.241S1468.557,1293.043,1468.557,1293.043Z" transform="translate(-1428.646 -1203.559)" fill="#ffd5c0"/>
        <path id="路径_672" data-name="路径 672" d="M1327.206,1480.911l-1.486,3.229h-1.43s-5.374-.018-9.884-.018h-2.915s6.65-1.417,8.421-6.4h5.976A4.717,4.717,0,0,1,1327.206,1480.911Z" transform="translate(-1304.585 -1352.223)" fill="#ff90c6"/>
        <path id="路径_673" data-name="路径 673" d="M1455.109,1480.911l-1.255,3.229h-1.66s-5.374-.018-9.884-.018H1439.4s7.388-2.35,8.421-6.4h5.976A4.713,4.713,0,0,1,1455.109,1480.911Z" transform="translate(-1405.612 -1352.223)" fill="#ff90c6"/>
        <path id="路径_674" data-name="路径 674" d="M1408.57,889.352s-5.241,8.656.379,9.248c0,0,1.616,3.926-1.969,9.418-3.457,5.3,10.373,7.651,11.8,3.985s-2.171-6.92-3.963-9.927-.821-4.711-.821-4.711,2.409-2.794-.4-2.446C1413.594,894.919,1409.291,894.785,1408.57,889.352Z" transform="translate(-1379.51 -887.49)" fill="#ffd5c0"/>
        <path id="路径_675" data-name="路径 675" d="M1380.39,962.816a6.88,6.88,0,0,0-2.684,2.606,16.959,16.959,0,0,0-2.259,5.416c-.847,3.558,3.752,12.36,2.842,15.092s-5.379,18.454-9.023,48.879c0,0,14.575,8.016,29.333.364,0,0,1.114-36.63-8.543-50.294,0,0,1.6-10.042.84-15.759C1390.1,963.175,1383.347,961.474,1380.39,962.816Z" transform="translate(-1350.219 -945.176)" fill="#353b6e"/>
        <path id="路径_676" data-name="路径 676" d="M1296.681,1023.219l-.034.057-.024-.051L1280.64,1013.1l-2.018,2.626,11.049,11.1c.867.875,3.841,2.789,5.044,2.521,1.115-.249,3.3-2.674,5.253-4.623C1301.859,1022.839,1296.681,1023.219,1296.681,1023.219Z" transform="translate(-1278.622 -985.237)" fill="#ffd5c0"/>
        <path id="路径_677" data-name="路径 677" d="M1348.651,985.58s-4.244,5.3,3.152,5.884c0,0,10.507-10.927,14.709-17.441,2.14-3.317-3.384-7.88-4.833-6.094A186.024,186.024,0,0,0,1348.651,985.58Z" transform="translate(-1332.979 -949.238)" fill="#ffd5c0"/>
        <path id="路径_678" data-name="路径 678" d="M1410.775,989.438c.14,4.483-.631,13.658-6.3,9.456S1410.775,989.438,1410.775,989.438Z" transform="translate(-1376.822 -966.545)" fill="#ffd5c0"/>
        <path id="路径_679" data-name="路径 679" d="M1440.175,930.438c-.981,4.623-.35,8.2,1.751,11.347s.421,7.145-1.05,10.717.491,12.538,9.386,12.678,7.214-19.612,3.222-24.025S1440.175,930.438,1440.175,930.438Z" transform="translate(-1405.871 -919.942)" fill="#ff90c6"/>
      </g>
      <path id="路径_680" data-name="路径 680" d="M1271.227,992.481a14.734,14.734,0,0,1-1.466-4.157,10.922,10.922,0,0,0-.33-2.212s-1.274.332-.943,2.544a15.485,15.485,0,0,1-2.282.677,8.779,8.779,0,0,0,2.521,5.043S1272.625,996.57,1271.227,992.481Z" transform="translate(-1243.002 -947.502)" fill="#ffd5c0"/>
    </g>
    <g id="Ladder" transform="translate(338.499 481.64)">
      <path id="路径_681" data-name="路径 681" d="M738.873,926.729l-1.259,21.244-.162,2.732-.8,13.448-.162,2.732-.8,13.448-.162,2.732-.8,13.448-.162,2.732-.8,13.448-.162,2.732-.8,13.448-.162,2.732-1.082,18.254-2.727-.162,2.99-50.451.164-2.732.8-13.448.162-2.732.8-13.448.164-2.732.8-13.448.162-2.732,1.269-21.406Z" transform="translate(-728.846 -926.538)" fill="#353b6e"/>
      <path id="路径_682" data-name="路径 682" d="M905.852,1049.672l-2.519.1-.74-18.283-.111-2.732-.544-13.448-.109-2.732-.544-13.448-.111-2.731-.544-13.448-.109-2.732-.544-13.448-.111-2.732-.544-13.448-.109-2.731-.863-21.33,2.519-.105.868,21.435.109,2.731Z" transform="translate(-862.73 -926.428)" fill="#353b6e"/>
      <rect id="矩形_176" data-name="矩形 176" width="38.664" height="2.732" transform="translate(2.807 102.334)" fill="#353b6e"/>
      <rect id="矩形_177" data-name="矩形 177" width="36.772" height="2.732" transform="translate(2.807 86.155)" fill="#353b6e"/>
      <path id="路径_683" data-name="路径 683" d="M743.24,1259.437h36.426v2.732H743.076Z" transform="translate(-740.086 -1189.463)" fill="#353b6e"/>
      <path id="路径_684" data-name="路径 684" d="M783.275,1182.438v2.732H747.646l.162-2.732Z" transform="translate(-743.696 -1128.643)" fill="#353b6e"/>
      <path id="路径_685" data-name="路径 685" d="M786.877,1105.437v2.732H752.206l.164-2.732Z" transform="translate(-747.297 -1067.823)" fill="#353b6e"/>
      <path id="路径_686" data-name="路径 686" d="M790.021,1031.169H756.776l.162-2.731h32.973Z" transform="translate(-750.907 -1007.003)" fill="#353b6e"/>
    </g>
    <g id="Person-2" data-name="Person" transform="translate(326.163 398.376)">
      <g id="Magnifying_glass" data-name="Magnifying glass" transform="translate(51.384 0)">
        <rect id="矩形_174" data-name="矩形 174" width="1.68" height="18.563" rx="0.84" transform="matrix(0.867, -0.498, 0.498, 0.867, 8.937, 10.302)" fill="#ac7dfd"/>
        <rect id="矩形_175" data-name="矩形 175" width="1.68" height="18.563" rx="0.84" transform="translate(8.646 10.469) rotate(-29.876)" fill="#ff73b7"/>
        <ellipse id="椭圆_43" data-name="椭圆 43" cx="6.573" cy="6.86" rx="6.573" ry="6.86" transform="translate(0 6.549) rotate(-29.876)" fill="#ac7dfd"/>
        <ellipse id="椭圆_44" data-name="椭圆 44" cx="5.547" cy="5.789" rx="5.547" ry="5.789" transform="translate(1.423 6.966) rotate(-29.876)" fill="#fafcfb"/>
        <path id="路径_660" data-name="路径 660" d="M977.3,563.01" transform="translate(-964.143 -556.11)" fill="none" stroke="#ac7dfd" stroke-linecap="round" stroke-linejoin="round" stroke-width="2.798"/>
        <path id="路径_661" data-name="路径 661" d="M935.191,559.715a.294.294,0,0,1-.255-.148,5.236,5.236,0,0,1-.56-3.88,4.828,4.828,0,0,1,2.288-3.062.294.294,0,0,1,.293.51,4.244,4.244,0,0,0-2.01,2.694,4.65,4.65,0,0,0,.5,3.446.294.294,0,0,1-.255.44Z" transform="translate(-930.117 -547.876)" fill="#ac7dfd"/>
        <path id="路径_662" data-name="路径 662" d="M969.6,594.138" transform="translate(-958.057 -580.697)" fill="none" stroke="#ac7dfd" stroke-linecap="round" stroke-linejoin="round" stroke-width="2.798"/>
        <path id="路径_663" data-name="路径 663" d="M977.3,563.01" transform="translate(-964.143 -556.11)" fill="none" stroke="#ac7dfd" stroke-linecap="round" stroke-linejoin="round" stroke-width="2.798"/>
      </g>
      <path id="路径_687" data-name="路径 687" d="M752.155,1224.694l7.893,5.491H744.434v-5.662S747.008,1219.2,752.155,1224.694Z" transform="translate(-728.823 -1076.792)" fill="#404884"/>
      <path id="路径_688" data-name="路径 688" d="M890.151,1224.694l7.893,5.491H882.43v-5.662S885,1219.2,890.151,1224.694Z" transform="translate(-837.822 -1076.792)" fill="#404884"/>
      <path id="路径_689" data-name="路径 689" d="M759.058,861.755s-.481,30.467-5.074,37.317c-5.854,8.729-7.227,22.627-8.665,33.264l-9.3-.131s-1.663-21.784,5.937-32.64c1.2-1.716,2.408-16.423,1.729-19.89s-4.317-10.6,1.01-23.123S759.058,861.755,759.058,861.755Z" transform="translate(-722.053 -784.435)" fill="#ff78ba"/>
      <path id="路径_690" data-name="路径 690" d="M814.606,856.385s7.6,32.362,6.692,37.061c-1.887,9.78,1.888,27.453,2.917,37.061h-9.78S806.35,910.658,811,898.25c1.544-4.118-3.775-16.986-5.491-20.075s-7.378-8.75-6.177-22.305S814.606,856.385,814.606,856.385Z" transform="translate(-772.057 -782.777)" fill="#ff90c6"/>
      <path id="路径_691" data-name="路径 691" d="M929.671,631.624l7.909-15.745,3.927-5.65a.889.889,0,0,1,1.4,0l2.2,2.794a.889.889,0,0,1-.164,1.259l-3.839,2.892-6.156,19.836h0a3.372,3.372,0,0,1-5.333-1.833A7.926,7.926,0,0,1,929.671,631.624Z" transform="translate(-874.95 -593.142)" fill="#ffd5c0"/>
      <path id="路径_692" data-name="路径 692" d="M837.871,702.76l16.014-2.322,3.866,7.726-25.766,7.818Z" transform="translate(-797.977 -664.66)" fill="#404884"/>
      <path id="路径_693" data-name="路径 693" d="M689.3,728.6,673,743.01c-.733.987-.79,5.347.27,5.97l21.349,8.443v-5.49L683.294,744.9l3.337-2.816c3.23-3.445,4.655-7.354,3.162-11.834Z" transform="translate(-671.972 -686.903)" fill="#ffd5c0"/>
      <path id="路径_694" data-name="路径 694" d="M688.613,719.616,673,735.916c-.733.987-.79,5.347.27,5.97l10.025-4.082,4.118-2.574c3.23-3.445,3.874-7.6,2.38-12.075Z" transform="translate(-671.972 -679.809)" fill="#404884"/>
      <path id="路径_695" data-name="路径 695" d="M797.442,636.329s4.407,9.364,2.02,10.649a9.824,9.824,0,0,1-4.223,1.285l.734,7.344s-6.426,2.754-8.262-1.1c0,0,2.571-4.223,2.938-7.344C790.649,647.162,784.773,637.063,797.442,636.329Z" transform="translate(-762.892 -615.658)" fill="#ffd5c0"/>
      <path id="路径_696" data-name="路径 696" d="M787.92,632.406s-1.469-1.124-1.469-.367c0,.918,0,2.571,1.469,2.754a5.424,5.424,0,0,1-6.61,2.2c-4.59-1.469-4.59-6.794-.551-9.915s8.262-5.325,10.833.367C791.592,627.449,787.369,630.2,787.92,632.406Z" transform="translate(-755.206 -606.044)" fill="#ff90c6"/>
      <path id="路径_697" data-name="路径 697" d="M736.61,719.05a7.06,7.06,0,0,1,7.065-6.783h18.758c2.059,0-1.544,16.128.172,24.707a118.285,118.285,0,0,0,3.088,12.7l-22.134.343S736.188,730.5,736.61,719.05Z" transform="translate(-722.629 -674.004)" fill="#353b6e"/>
      <path id="路径_698" data-name="路径 698" d="M681.462,794.453l-9.179-3.117s-2.316.886-1.544,2.516c0,0-1.287,1.229-.086,2.2a1.82,1.82,0,0,0,.858,2.517l10.581-3.746S681.805,794.281,681.462,794.453Z" transform="translate(-670.14 -736.458)" fill="#808bd1"/>
      <path id="路径_699" data-name="路径 699" d="M928.1,699.09s-.73-.587-1.024.22a.807.807,0,0,0-1.2.193l1.516,8.879s1.2.691,1.6-.257c0,0,.882.558,1.149-.074,0,0,1.914-.124,2.023-.823C932.165,707.228,928.362,698.362,928.1,699.09Z" transform="translate(-872.141 -663.433)" fill="#808bd1"/>
    </g>
  </g>
</svg>
